<svg width="434" height="452" viewBox="0 0 434 452" fill="none" xmlns="http://www.w3.org/2000/svg">
<path d="M424 314.673V137.316C423.993 131.511 422.407 125.809 419.402 120.778C416.396 115.747 412.075 111.561 406.869 108.639L242.994 16.7612C235.098 12.333 226.125 10 216.989 10C207.853 10 198.88 12.333 190.985 16.7612L27.1314 108.639C21.9251 111.561 17.604 115.747 14.5984 120.778C11.5927 125.809 10.0073 131.511 10 137.316V314.673C10.0036 320.482 11.5872 326.188 14.593 331.223C17.5988 336.258 21.9219 340.447 27.1314 343.371L191.006 435.249C198.904 439.671 207.876 442 217.011 442C226.146 442 235.117 439.671 243.015 435.249L406.89 343.371C412.096 340.444 416.414 336.254 419.416 331.219C422.418 326.184 423.999 320.48 424 314.673Z" fill="#799FFF" stroke="white" stroke-width="20" stroke-linecap="round" stroke-linejoin="round"/>
<path d="M19 122L217 235.548M217 235.548L415 122M217 235.548V442" stroke="white" stroke-width="20" stroke-linecap="round" stroke-linejoin="round"/>
</svg>
